# xmcd
#
# Track frame offsets: 
#        150
#        14042
#        25255
#        36175
#        47207
#        58620
#        70315
#        82887
#        93255
#        104397
#        118910
#        129082
#        139760
#        151065
#        162447
#        173475
#        184582
#        194900
#        207942
#        219325
#        232145
#        245192
#        257870
#        268405
#        278787
#        290167
#
# Disc length: 4014 seconds
#
# Revision: 1
# Processed by: cddbd v1.5.2PL0 Copyright (c) Steve Scherf et al.
# Submitted via: ExactAudioCopy v0.95b2
#
DISCID=8f0fac1a
DTITLE=Patsy Cline - 25 All-Time Greatest Recordings - The 4 Star Sess
DTITLE=ions 1955-1960
DYEAR=2000
DGENRE=Country
TTITLE0=A Church, A Courtroom And Then Goodbye
TTITLE1=Hidin' Out
TTITLE2=I Don't Wanta (alt)
TTITLE3=I Cried All The Way To The Altar
TTITLE4=Dear God
TTITLE5=Walkin' After Midnight
TTITLE6=A Poor Man's Roses (Or A Rich Man's Gold)
TTITLE7=Pick Me Up On Your Way Down
TTITLE8=A Stranger In My Arms
TTITLE9=Then You'll Know
TTITLE10=Three Cigarettes In An Ashtray
TTITLE11=I Don't Wanta
TTITLE12=Hungry For Love
TTITLE13=That Wonderful Someone
TTITLE14=I Can't Forget
TTITLE15=Stop The World (And Let Me Off)
TTITLE16=Walking Dream
TTITLE17=If I Could See The World (Through The Eyes Of A Child)
TTITLE18=Cry Not For Me
TTITLE19=Yes I Understand
TTITLE20=Life's Railway To Heaven
TTITLE21=Just A Closer Walk With Thee
TTITLE22=Lovesick Blues
TTITLE23=How Can I Face Tomorrow
TTITLE24=Crazy Dreams
TTITLE25=There He Goes
EXTD=
EXTT0=
EXTT1=
EXTT2=
EXTT3=
EXTT4=
EXTT5=
EXTT6=
EXTT7=
EXTT8=
EXTT9=
EXTT10=
EXTT11=
EXTT12=
EXTT13=
EXTT14=
EXTT15=
EXTT16=
EXTT17=
EXTT18=
EXTT19=
EXTT20=
EXTT21=
EXTT22=
EXTT23=
EXTT24=
EXTT25=
PLAYORDER=
